# xmcd
#
# Track frame offsets:
# 150
# 13120
# 26202
# 39478
# 53716
# 67411
# 80158
#
# Disc length: 1234 seconds
#
#
# Revision: 0
# Processed by: cddbd v1.5.2PL0 Copyright (c) Steve Scherf et al.
# Submitted via: FreeRIP 2.945 
#
DISCID=6104d007
DTITLE=Sammy Kershaw - Finaly Friday (After Midnite Remixes)
DYEAR=2003
DGENRE=radio
TTITLE0=Finaly Friday 1
TTITLE1=Finaly Friday 2
TTITLE2=Finaly Friday 3
TTITLE3=Finaly Friday 4
TTITLE4=Finaly Friday 5
TTITLE5=Finaly Friday 6
TTITLE6=Finaly Friday 7
EXTD=
EXTT0=
EXTT1=
EXTT2=
EXTT3=
EXTT4=
EXTT5=
EXTT6=
PLAYORDER=
